<svg width="151" height="51" viewBox="0 0 151 51" fill="none" xmlns="http://www.w3.org/2000/svg">
<g clip-path="url(#clip0_122_45)">
<path d="M40.2139 17.8686C40.0936 17.6275 39.9732 17.3862 39.7928 17.0846L37.3261 13.8281L37.266 13.7678C37.0855 13.5869 36.905 13.3456 36.6643 13.1647C37.0253 12.6822 37.3261 12.1998 37.5667 11.7173C38.5896 9.90813 39.6123 7.55616 38.5294 5.62634C38.4091 5.44542 38.2887 5.2645 38.1684 5.08357L36.0025 2.18884C34.7993 0.439941 32.3927 0.439941 31.6106 0.439941C31.2496 0.439941 30.8886 0.439941 30.5277 0.500248C25.0528 0.922397 19.1569 2.18884 13.7421 3.69652C12.6592 3.99805 11.7568 4.72173 11.2152 5.68665C7.78599 11.9586 2.43146 25.1658 0.265592 31.4377C0.0249394 32.2216 -0.697019 34.2119 0.446081 35.7798L2.91277 39.0363C3.27375 39.5188 4.11604 40.4234 5.49979 40.3028C4.95832 41.6295 4.35669 43.4388 4.05587 44.5847C3.81522 45.4892 3.99571 46.2732 4.53718 47.2984C4.95832 48.0824 5.98109 49.4695 6.9437 50.3741C7.84615 51.2787 8.98925 51.0978 10.0721 50.4947C14.043 48.3839 23.7894 42.112 32.6936 32.3423C37.3863 27.0354 41.5375 20.884 40.2139 17.8686Z" fill="#010202"/>
<path d="M2.43157 31.679C4.6576 25.1658 9.89177 12.5617 13.0203 6.77224C13.2609 6.28978 13.7423 5.92794 14.2235 5.80732C20.4203 4.05842 26.2562 2.97291 30.5879 2.67137C34.9196 2.36983 33.0546 6.65162 31.8513 9.0639C30.5277 11.5967 28.3017 14.5519 28.3017 14.5519C28.3017 14.5519 30.1668 13.7075 32.5132 13.7075C37.8075 13.7075 36.2432 18.9543 27.7603 28.6033C22.105 35.0562 12.2983 42.2327 7.30478 44.9465C7.06413 45.0672 6.70315 45.0672 6.52266 44.9465C6.34217 44.8259 6.28201 44.5243 6.40234 44.1625C7.24462 41.2075 9.29017 36.9258 10.4333 33.7897C8.02674 34.031 5.68038 34.4531 3.87548 34.5737C1.58928 34.7546 2.01042 32.9454 2.43157 31.679Z" fill="#F5F5F5"/>
<path d="M15.0656 20.6428C14.103 23.1757 13.3811 25.1055 12.7192 27.0354C18.8559 25.6483 21.3828 23.8391 21.9242 21.7283C22.5259 19.497 19.5778 19.1954 15.0656 20.6428Z" fill="#010202"/>
<path d="M19.4574 9.42589V9.5465C19.4574 9.5465 18.6753 11.4161 17.5923 14.1298C22.8867 13.0444 24.451 11.597 24.8119 10.5114C25.1729 9.4862 24.8119 7.55638 19.4574 9.42589Z" fill="#010202"/>
<path d="M57.2399 23.839C58.2627 23.4772 58.9846 22.8741 59.466 22.0901C59.9472 21.3061 60.1879 20.3412 60.2481 19.2557C60.3082 17.8686 59.9472 16.8434 59.1651 16.1197C58.383 15.396 57.1798 15.0342 55.5553 15.0342H50.0203L45.7488 33.6087H51.3439C52.2464 33.6087 53.1488 33.4881 53.9912 33.2469C54.8936 33.0056 55.6757 32.6438 56.3374 32.1613C57.0594 31.6789 57.6009 31.0155 58.0822 30.1712C58.5636 29.3269 58.8041 28.362 58.8041 27.1558C58.8041 26.4925 58.6838 25.8291 58.4432 25.226C58.2025 24.623 57.7212 24.2008 57.0594 23.9596C57.0594 23.8993 57.0594 23.8993 57.0594 23.8993C57.2399 23.8993 57.2399 23.839 57.2399 23.839ZM54.8936 28.1811C54.7732 28.5429 54.5927 28.8445 54.4122 29.0857C54.1716 29.3872 53.931 29.5681 53.57 29.749C53.209 29.9299 52.8481 29.9903 52.4269 29.9903H50.4415L51.4643 25.5879H53.57C54.1114 25.5879 54.5326 25.7085 54.7732 26.01C55.0139 26.3116 55.1943 26.6734 55.1343 27.1558C55.0741 27.5177 55.0139 27.8796 54.8936 28.1811ZM56.3374 20.7633C56.2172 21.0649 56.0367 21.3061 55.8562 21.5473C55.6155 21.7885 55.3748 21.9694 55.0741 22.0901C54.7732 22.2107 54.4724 22.271 54.1114 22.271H52.126L53.0285 18.532H54.8936C55.4952 18.532 55.9163 18.6526 56.157 18.8335C56.3976 19.0747 56.5179 19.3762 56.5179 19.8587C56.5179 20.1602 56.4578 20.4618 56.3374 20.7633ZM69.5132 15.0342H63.7375L59.466 33.6087H63.2562L64.9408 26.2513H66.5653L67.8286 33.6087H71.9197L70.3555 25.5879C71.4384 25.1657 72.3409 24.5024 73.0628 23.5977C73.7848 22.6932 74.2059 21.4267 74.2661 19.9191C74.3864 18.2304 74.0254 17.0243 73.123 16.2403C72.2807 15.396 71.0775 15.0342 69.5132 15.0342ZM70.3555 21.4267C70.175 21.7283 69.9946 21.9694 69.7539 22.1503C69.5132 22.3313 69.2124 22.4519 68.8515 22.5725C68.4904 22.6328 68.1896 22.6932 67.8286 22.6932H65.7831L66.7457 18.4717H68.7913C69.3929 18.4717 69.814 18.5922 70.175 18.8938C70.536 19.1351 70.6563 19.6175 70.5961 20.2809C70.5961 20.7633 70.4758 21.1252 70.3555 21.4267ZM87.5621 18.9541C87.4418 18.1701 87.141 17.5068 86.78 16.9037C86.3589 16.3006 85.8174 15.8181 85.0954 15.4563C84.3735 15.0945 83.5312 14.9136 82.5085 14.9136C81.4256 14.9136 80.523 15.0945 79.7409 15.4563C78.9588 15.8181 78.297 16.3006 77.7556 16.8434C77.2141 17.3861 76.793 18.0495 76.4921 18.7732C76.1913 19.4969 75.9506 20.1602 75.7702 20.884L74.2661 27.0352C74.0856 27.9398 74.0254 28.7841 74.0856 29.5681C74.1458 30.3521 74.4466 31.0758 74.8677 31.7391C75.2889 32.3422 75.8905 32.885 76.6726 33.2469C77.4547 33.6087 78.4173 33.7896 79.6808 33.7896C80.5832 33.7896 81.4255 33.669 82.1475 33.3674C82.8694 33.066 83.4711 32.7041 84.0125 32.1613C84.554 31.6186 84.9752 31.0155 85.2759 30.2919C85.6369 29.5681 85.8776 28.7239 86.1182 27.8192L87.6223 21.3664C87.6825 20.5221 87.7426 19.6778 87.5621 18.9541ZM83.7118 20.8236L82.0873 28.0001C81.967 28.6032 81.6661 29.0857 81.3052 29.4475C80.9442 29.8094 80.4629 29.9903 79.9214 29.9903C79.1393 29.9903 78.5978 29.749 78.297 29.327C77.9963 28.9048 77.9361 28.2414 78.1165 27.3971L79.6808 20.6427C79.7409 20.4015 79.8011 20.2205 79.9214 19.9793C80.0418 19.7382 80.1621 19.4969 80.3425 19.316C80.523 19.1351 80.7637 18.9541 81.0044 18.8335C81.245 18.7129 81.606 18.6526 81.967 18.6526C82.328 18.6526 82.6889 18.7129 82.9296 18.8938C83.1702 19.0747 83.3507 19.2557 83.5312 19.4969C83.6516 19.7382 83.7719 19.9793 83.7719 20.2205C83.7719 20.4015 83.7719 20.6427 83.7118 20.8236ZM100.016 15.0342L97.6095 26.01H97.4891C97.4891 25.8291 97.4289 25.5276 97.3086 25.0451C97.1883 24.5626 97.0078 24.0199 96.8874 23.4772C96.7069 22.9344 96.5866 22.3916 96.4062 21.9092C96.2859 21.4267 96.1655 21.1252 96.1655 20.9443L94.5411 15.0342H91.1719L86.9004 33.6087H90.6907L93.037 23.1756H93.0971L94.1801 27.1558L96.1655 33.6087H99.4745L103.746 15.0342H100.016ZM106.453 15.0342L102.182 33.6087H105.972L110.244 15.0342H106.453ZM118.546 15.0342H113.011L108.74 33.6087H114.334C115.237 33.6087 116.14 33.4881 116.981 33.2469C117.884 33.0056 118.666 32.6438 119.329 32.1613C120.05 31.6789 120.592 31.0155 121.073 30.1712C121.555 29.3269 121.795 28.362 121.795 27.1558C121.795 26.4925 121.675 25.8291 121.434 25.226C121.193 24.623 120.712 24.2008 120.05 23.9596C120.05 23.8993 120.05 23.8993 120.05 23.8993V23.839C121.073 23.4772 121.795 22.8741 122.277 22.0901C122.758 21.3061 122.998 20.3412 123.059 19.2557C123.118 17.8686 122.758 16.8434 121.976 16.1197C121.313 15.3357 120.11 15.0342 118.546 15.0342ZM117.824 28.1811C117.704 28.5429 117.524 28.8445 117.343 29.0857C117.103 29.3872 116.861 29.5681 116.501 29.749C116.14 29.9299 115.779 29.9903 115.357 29.9903H113.372L114.395 25.5879H116.501C117.042 25.5879 117.463 25.7085 117.704 26.01C117.945 26.3116 118.125 26.6734 118.065 27.1558C118.005 27.5177 117.945 27.8796 117.824 28.1811ZM119.268 20.7633C119.148 21.0649 118.967 21.3061 118.787 21.5473C118.546 21.7885 118.306 21.9694 118.005 22.0901C117.704 22.2107 117.403 22.271 117.042 22.271H115.056L115.959 18.532H117.824C118.426 18.532 118.847 18.6526 119.087 18.8335C119.329 19.0747 119.449 19.3762 119.449 19.8587C119.449 20.1602 119.388 20.4618 119.268 20.7633ZM135.934 16.9037C135.513 16.3006 134.97 15.8181 134.249 15.4563C133.527 15.0945 132.685 14.9136 131.662 14.9136C130.579 14.9136 129.676 15.0945 128.894 15.4563C128.112 15.8181 127.45 16.3006 126.909 16.8434C126.367 17.3861 125.946 18.0495 125.645 18.7732C125.344 19.4969 125.104 20.1602 124.924 20.884L123.419 27.0352C123.179 27.9398 123.118 28.7841 123.239 29.5681C123.299 30.3521 123.6 31.0758 124.021 31.7391C124.442 32.3422 125.044 32.885 125.826 33.2469C126.608 33.6087 127.571 33.7896 128.834 33.7896C129.737 33.7896 130.579 33.669 131.301 33.3674C132.023 33.066 132.624 32.7041 133.165 32.1613C133.708 31.6186 134.128 31.0155 134.49 30.2919C134.85 29.5681 135.091 28.7239 135.332 27.8192L136.836 21.3664C137.017 20.5221 137.076 19.7382 136.956 19.0144C136.655 18.1701 136.355 17.5068 135.934 16.9037ZM132.865 20.8236L131.24 28.0001C131.12 28.6032 130.819 29.0857 130.459 29.4475C130.097 29.8094 129.616 29.9903 129.075 29.9903C128.292 29.9903 127.751 29.749 127.45 29.327C127.15 28.9048 127.089 28.2414 127.27 27.3971L128.834 20.6427C128.894 20.4015 128.955 20.2205 129.075 19.9793C129.195 19.7382 129.315 19.4969 129.496 19.316C129.676 19.1351 129.917 18.9541 130.158 18.8335C130.459 18.7129 130.76 18.6526 131.181 18.6526C131.541 18.6526 131.902 18.7129 132.143 18.8938C132.384 19.0747 132.565 19.2557 132.744 19.4969C132.865 19.7382 132.986 19.9793 132.986 20.2205C132.925 20.4015 132.925 20.6427 132.865 20.8236ZM147.064 15.0342L144.958 18.7732C144.657 19.3762 144.296 19.9793 143.995 20.6427C143.695 21.3061 143.333 21.9092 143.033 22.5123H142.852C142.852 22.271 142.792 21.9092 142.792 21.6076C142.792 21.2458 142.732 20.884 142.732 20.5824C142.732 20.2205 142.671 19.8587 142.671 19.4969C142.612 19.1351 142.612 18.8335 142.551 18.532C142.491 17.9289 142.37 17.3259 142.311 16.783C142.25 16.2403 142.13 15.6976 142.07 15.0342H138.039L140.205 26.1909C139.904 27.4574 139.603 28.6635 139.363 29.9299C139.062 31.1964 138.821 32.4026 138.52 33.669H142.25L143.935 26.1909L151.215 15.0342H147.064Z" fill="#010202"/>
</g>
<defs>
<clipPath id="clip0_122_45">
<rect width="150" height="50" fill="white" transform="translate(0.5 0.5)"/>
</clipPath>
</defs>
</svg>
