<svg width="193" height="59" viewBox="0 0 193 59" fill="none" xmlns="http://www.w3.org/2000/svg">
<g clip-path="url(#clip0_38_176)">
<path fill-rule="evenodd" clip-rule="evenodd" d="M33.1603 45.647C33.0574 44.7318 33.6434 40.2275 33.6434 40.2275C33.6434 40.2275 34.8211 40.4144 35.9576 40.5334C37.094 40.6523 38.9225 40.7465 38.9225 40.7465C38.9225 40.7465 37.9366 44.1261 38.5091 44.8976C39.8325 46.6806 47.0661 51.0841 48.7247 52.8514C49.5584 53.6373 50.4049 54.3996 51.4406 55.0862C52.1726 55.6758 54.535 55.7435 55.1563 56.3332C55.5717 56.7591 56.08 58.0003 55.825 58.2249C55.651 58.3781 52.071 58.4524 51.4406 58.3452C50.7572 58.3452 49.9389 57.721 49.9389 57.721C49.9389 57.721 49.4306 58.2249 48.7247 57.8683C47.4805 57.281 47.6665 56.0691 46.9402 55.0862C46.5249 54.6936 40.4457 50.9053 36.5284 48.8112C33.1676 47.0146 33.317 47.0405 33.1603 45.647ZM8.9873 33.9866C8.25894 33.3731 5.5679 35.5559 4.79861 35.3985C4.02933 35.2411 4.78174 33.438 4.10025 33.5478C3.17612 33.6968 2.92961 35.7463 2.09957 35.9055C0.76095 36.3822 0 34.4828 0 32.2157C0 29.9485 0.851021 27.4779 3.74959 25.896C6.64815 24.3141 10.9405 23.9111 14.2711 24.9699C17.4316 23.3667 21.5897 18.7135 30.8508 18.4961C40.112 18.2786 43.5794 22.664 45.5479 21.614C47.5164 20.564 48.1827 18.1966 47.7544 16.428C46.9341 13.0404 45.343 11.1984 44.0695 8.18187C43.27 6.28911 43.2262 3.78893 44.2334 1.95544C44.6852 1.14107 45.7826 0.191132 47.4375 0.0159499C49.0923 -0.159232 49.528 1.15868 50.6862 1.51819C51.8444 1.8777 54.3197 2.099 54.5131 2.93535C54.7065 3.7717 51.7362 4.42917 51.0629 4.36066C49.4858 4.20056 48.4907 5.20605 48.5761 6.98258C48.6779 9.24173 49.2384 10.0484 51.4359 13.2642C53.6334 16.48 53.6134 21.827 50.8068 25.5578C49.9218 26.6478 48.9796 27.5736 48.3551 28.8198C47.8519 29.8181 48.3551 27.8063 48.3551 31.791C48.3551 35.7757 46.2354 37.6938 43.4655 38.5359C39.7364 39.6696 36.5162 39.2455 33.2228 38.8776C28.6657 38.3686 25.0997 38.4281 23.2384 38.8776C21.6255 39.2687 16.5772 41.9681 15.956 43.2243C15.6262 43.9024 13.8445 50.9605 13.518 52.5107C13.3845 53.1489 13.4598 54.4192 13.1479 54.9849C12.8068 55.613 8.65263 58.0955 7.24241 58.6051C6.59267 58.8406 5.28067 59.1417 5.12484 58.9259C4.2057 57.9234 4.2089 57.6911 6.8798 55.864C5.9469 54.0301 8.6385 53.5823 9.42991 52.6779C10.2938 51.6942 11.8607 40.9837 12.3979 39.5889C12.9351 38.1941 15.0318 37.7139 15.8819 36.4731C15.4798 36.033 14.9229 36.268 13.45 36.659C12.1863 36.9961 9.54746 37.8875 8.9873 37.4418C8.42714 36.9961 9.71565 34.6 8.9873 33.9866Z" fill="white"/>
<path fill-rule="evenodd" clip-rule="evenodd" d="M81.6241 27.6641H73.0617V6.94422H81.5916C88.3702 6.94422 93.073 11.0758 93.073 17.2886C93.073 23.5636 88.3702 27.6641 81.6241 27.6641ZM81.5916 23.781C85.8728 23.781 88.3702 20.8299 88.3702 17.2886C88.3702 13.6541 86.035 10.8273 81.6241 10.8273H77.6672V23.781H81.5916ZM103.614 28.0369C98.8461 28.0369 95.246 24.9615 95.246 20.1465C95.246 15.7975 98.6191 12.2873 103.354 12.2873C108.057 12.2873 111.203 15.6422 111.203 20.5193V21.4512H99.5596C99.8515 23.284 101.408 24.8062 104.068 24.8062C105.398 24.8062 107.214 24.2781 108.219 23.3462L110.068 25.9555C108.511 27.3224 106.046 28.0369 103.614 28.0369ZM107.246 18.7176C107.117 17.2886 106.079 15.518 103.354 15.518C100.792 15.518 99.6894 17.2265 99.5272 18.7176H107.246ZM118.598 28.0369C115.711 28.0369 114.187 26.6079 114.187 23.9053V6.94422H118.306V22.8491C118.306 23.8121 118.825 24.5266 119.733 24.5266C120.349 24.5266 120.933 24.3091 121.16 24.0606L122.036 27.0739C121.42 27.602 120.284 28.0369 118.598 28.0369ZM125.895 11.0447C124.566 11.0447 123.463 9.98852 123.463 8.68382C123.463 7.37912 124.566 6.354 125.895 6.354C127.258 6.354 128.36 7.37912 128.36 8.68382C128.36 9.98852 127.258 11.0447 125.895 11.0447ZM127.971 27.6641H123.852V12.66H127.971V27.6641ZM140.555 27.6641H136.112L129.82 12.66H134.231L138.317 23.0976L142.436 12.66H146.847L140.555 27.6641ZM156.058 28.0369C151.291 28.0369 147.691 24.9615 147.691 20.1465C147.691 15.7975 151.064 12.2873 155.799 12.2873C160.502 12.2873 163.648 15.6422 163.648 20.5193V21.4512H152.004C152.296 23.284 153.853 24.8062 156.512 24.8062C157.842 24.8062 159.658 24.2781 160.664 23.3462L162.513 25.9555C160.956 27.3224 158.491 28.0369 156.058 28.0369ZM159.691 18.7176C159.561 17.2886 158.523 15.518 155.799 15.518C153.237 15.518 152.134 17.2265 151.972 18.7176H159.691ZM170.751 27.6641H166.632V12.66H170.751V14.6792C171.886 13.3745 173.799 12.2873 175.745 12.2873V16.1392C175.453 16.0771 175.097 16.0461 174.61 16.0461C173.248 16.0461 171.432 16.7916 170.751 17.7546V27.6641ZM184.664 33.7527C182.037 33.7527 179.929 33.0382 178.113 31.5161L179.962 28.6892C181.097 29.9939 183.01 30.522 184.664 30.522C187.324 30.522 188.881 28.7824 188.881 26.67V25.1168C187.81 26.2351 185.929 27.3845 183.367 27.3845C179.929 27.3845 178.308 25.5828 178.308 22.6627V12.66H182.427V21.1095C182.427 23.1908 183.562 23.8742 185.313 23.8742C186.902 23.8742 188.167 23.0355 188.881 22.1657V12.66H193V26.67C193 31.1743 189.659 33.7527 184.664 33.7527ZM83.2044 56.2771C76.6854 56.2771 71.6582 51.9281 71.6582 45.5599C71.6582 39.1607 76.6854 34.8427 83.2044 34.8427C87.9397 34.8427 90.6965 37.2968 92.2209 39.9062L88.264 41.7701C87.3559 40.0926 85.4099 38.7568 83.2044 38.7568C79.2476 38.7568 76.3935 41.6458 76.3935 45.5599C76.3935 49.474 79.2476 52.363 83.2044 52.363C85.4099 52.363 87.3559 51.0272 88.264 49.3498L92.2209 51.1825C90.6965 53.7609 87.9397 56.2771 83.2044 56.2771ZM99.6569 56.2771C96.7704 56.2771 95.246 54.8481 95.246 52.1455V35.1845H99.365V51.0893C99.365 52.0523 99.884 52.7668 100.792 52.7668C101.408 52.7668 101.992 52.5494 102.219 52.3009L103.095 55.3141C102.479 55.8422 101.343 56.2771 99.6569 56.2771ZM119.603 55.9043H115.484V54.0094C114.414 55.1277 112.533 56.2771 109.971 56.2771C106.533 56.2771 104.911 54.4754 104.911 51.5553V40.9003H109.03V50.0021C109.03 52.0834 110.165 52.7668 111.917 52.7668C113.506 52.7668 114.771 51.9281 115.484 51.0583V40.9003H119.603V55.9043ZM127.809 51.0893C128.523 52.0523 130.014 52.7668 131.377 52.7668C133.744 52.7668 135.333 50.9962 135.333 48.3868C135.333 45.8084 133.744 44.0378 131.377 44.0378C130.014 44.0378 128.523 44.7833 127.809 45.7774V51.0893ZM127.809 55.9043H123.69V35.1845H127.809V42.8263C129.041 41.273 130.793 40.5275 132.642 40.5275C136.631 40.5275 139.582 43.5097 139.582 48.3868C139.582 53.4192 136.598 56.2771 132.642 56.2771C130.76 56.2771 129.041 55.4694 127.809 53.9783V55.9043Z" fill="white"/>
</g>
<defs>
<clipPath id="clip0_38_176">
<rect width="193" height="59" fill="white"/>
</clipPath>
</defs>
</svg>
