<svg width="224" height="27" viewBox="0 0 224 27" fill="none" xmlns="http://www.w3.org/2000/svg">
<path d="M6.95455 18.9318V7.68182H8.86364V18.9318H6.95455ZM2.28409 14.2614V12.3523H13.5341V14.2614H2.28409ZM17.6335 22L25.4403 6.55682V6.42045H16.4403V4.54545H27.6222V6.52273L19.8494 22H17.6335ZM38.299 13.2727C38.299 11.125 38.5774 9.15057 39.1342 7.34943C39.6967 5.54261 40.4979 3.88068 41.5376 2.36364H43.3104C42.9013 2.92614 42.5178 3.61932 42.1598 4.44318C41.8075 5.26136 41.4979 6.16193 41.2308 7.14489C40.9638 8.12216 40.7536 9.13352 40.6001 10.179C40.4524 11.2244 40.3786 12.2557 40.3786 13.2727C40.3786 14.625 40.5092 15.9972 40.7706 17.3892C41.032 18.7812 41.3842 20.0739 41.8274 21.267C42.2706 22.4602 42.7649 23.4318 43.3104 24.1818H41.5376C40.4979 22.6648 39.6967 21.0057 39.1342 19.2045C38.5774 17.3977 38.299 15.4205 38.299 13.2727ZM51.8011 4.30682C52.517 4.3125 53.233 4.44886 53.9489 4.71591C54.6648 4.98295 55.3182 5.42614 55.9091 6.04545C56.5 6.65909 56.9744 7.49716 57.3324 8.55966C57.6903 9.62216 57.8693 10.9545 57.8693 12.5568C57.8693 14.108 57.7216 15.4858 57.4261 16.6903C57.1364 17.8892 56.7159 18.9006 56.1648 19.7244C55.6193 20.5483 54.9545 21.1733 54.1705 21.5994C53.392 22.0256 52.5114 22.2386 51.5284 22.2386C50.5511 22.2386 49.679 22.0455 48.9119 21.6591C48.1506 21.267 47.5256 20.7244 47.0369 20.0312C46.554 19.3324 46.2443 18.5227 46.108 17.6023H48.1875C48.375 18.4034 48.7472 19.0653 49.304 19.5881C49.8665 20.1051 50.608 20.3636 51.5284 20.3636C52.875 20.3636 53.9375 19.7756 54.7159 18.5994C55.5 17.4233 55.892 15.7614 55.892 13.6136H55.7557C55.4375 14.0909 55.0597 14.5028 54.6222 14.8494C54.1847 15.196 53.6989 15.4631 53.1648 15.6506C52.6307 15.8381 52.0625 15.9318 51.4602 15.9318C50.4602 15.9318 49.5426 15.6847 48.7074 15.1903C47.8778 14.6903 47.2131 14.0057 46.7131 13.1364C46.2188 12.2614 45.9716 11.2614 45.9716 10.1364C45.9716 9.06818 46.2102 8.09091 46.6875 7.20454C47.1705 6.3125 47.8466 5.60227 48.7159 5.07386C49.5909 4.54545 50.6193 4.28977 51.8011 4.30682ZM51.8011 6.18182C51.0852 6.18182 50.4403 6.3608 49.8665 6.71875C49.2983 7.07102 48.8466 7.54829 48.5114 8.15057C48.1818 8.74716 48.017 9.40909 48.017 10.1364C48.017 10.8636 48.1761 11.5256 48.4943 12.1222C48.8182 12.7131 49.2585 13.1847 49.8153 13.5369C50.3778 13.8835 51.017 14.0568 51.733 14.0568C52.2727 14.0568 52.7756 13.9517 53.2415 13.7415C53.7074 13.5256 54.1136 13.233 54.4602 12.8636C54.8125 12.4886 55.0881 12.0653 55.2869 11.5938C55.4858 11.1165 55.5852 10.6193 55.5852 10.1023C55.5852 9.42045 55.4205 8.78125 55.0909 8.18466C54.767 7.58807 54.3182 7.10511 53.7443 6.73579C53.1761 6.36648 52.5284 6.18182 51.8011 6.18182ZM66.9141 22.2386C65.63 22.2386 64.5362 21.8892 63.6328 21.1903C62.7294 20.4858 62.0391 19.4659 61.5618 18.1307C61.0845 16.7898 60.8459 15.1705 60.8459 13.2727C60.8459 11.3864 61.0845 9.77557 61.5618 8.44034C62.0447 7.09943 62.7379 6.0767 63.6413 5.37216C64.5504 4.66193 65.6413 4.30682 66.9141 4.30682C68.1868 4.30682 69.2749 4.66193 70.1783 5.37216C71.0874 6.0767 71.7805 7.09943 72.2578 8.44034C72.7408 9.77557 72.9822 11.3864 72.9822 13.2727C72.9822 15.1705 72.7436 16.7898 72.2663 18.1307C71.7891 19.4659 71.0987 20.4858 70.1953 21.1903C69.2919 21.8892 68.1982 22.2386 66.9141 22.2386ZM66.9141 20.3636C68.1868 20.3636 69.1754 19.75 69.88 18.5227C70.5845 17.2955 70.9368 15.5455 70.9368 13.2727C70.9368 11.7614 70.7749 10.4744 70.451 9.41193C70.1328 8.34943 69.6726 7.53977 69.0703 6.98295C68.4737 6.42614 67.755 6.14773 66.9141 6.14773C65.6527 6.14773 64.6669 6.76989 63.9567 8.0142C63.2464 9.25284 62.8913 11.0057 62.8913 13.2727C62.8913 14.7841 63.0504 16.0682 63.3686 17.125C63.6868 18.1818 64.1442 18.9858 64.7408 19.5369C65.343 20.0881 66.0675 20.3636 66.9141 20.3636ZM81.9141 22.2386C80.63 22.2386 79.5362 21.8892 78.6328 21.1903C77.7294 20.4858 77.0391 19.4659 76.5618 18.1307C76.0845 16.7898 75.8459 15.1705 75.8459 13.2727C75.8459 11.3864 76.0845 9.77557 76.5618 8.44034C77.0447 7.09943 77.7379 6.0767 78.6413 5.37216C79.5504 4.66193 80.6413 4.30682 81.9141 4.30682C83.1868 4.30682 84.2749 4.66193 85.1783 5.37216C86.0874 6.0767 86.7805 7.09943 87.2578 8.44034C87.7408 9.77557 87.9822 11.3864 87.9822 13.2727C87.9822 15.1705 87.7436 16.7898 87.2663 18.1307C86.7891 19.4659 86.0987 20.4858 85.1953 21.1903C84.2919 21.8892 83.1982 22.2386 81.9141 22.2386ZM81.9141 20.3636C83.1868 20.3636 84.1754 19.75 84.88 18.5227C85.5845 17.2955 85.9368 15.5455 85.9368 13.2727C85.9368 11.7614 85.7749 10.4744 85.451 9.41193C85.1328 8.34943 84.6726 7.53977 84.0703 6.98295C83.4737 6.42614 82.755 6.14773 81.9141 6.14773C80.6527 6.14773 79.6669 6.76989 78.9567 8.0142C78.2464 9.25284 77.8913 11.0057 77.8913 13.2727C77.8913 14.7841 78.0504 16.0682 78.3686 17.125C78.6868 18.1818 79.1442 18.9858 79.7408 19.5369C80.343 20.0881 81.0675 20.3636 81.9141 20.3636ZM95.5504 13.2727C95.5504 15.4205 95.2692 17.3977 94.7067 19.2045C94.1499 21.0057 93.3516 22.6648 92.3118 24.1818H90.5391C90.9482 23.6193 91.3288 22.9261 91.6811 22.1023C92.0391 21.2841 92.3516 20.3864 92.6186 19.4091C92.8857 18.4261 93.093 17.4119 93.2408 16.3665C93.3942 15.3153 93.4709 14.2841 93.4709 13.2727C93.4709 11.9205 93.3402 10.5483 93.0788 9.15625C92.8175 7.7642 92.4652 6.47159 92.022 5.27841C91.5788 4.08523 91.0845 3.11364 90.5391 2.36364H92.3118C93.3516 3.88068 94.1499 5.54261 94.7067 7.34943C95.2692 9.15057 95.5504 11.125 95.5504 13.2727ZM112.359 22.2386C111.075 22.2386 109.982 21.8892 109.078 21.1903C108.175 20.4858 107.484 19.4659 107.007 18.1307C106.53 16.7898 106.291 15.1705 106.291 13.2727C106.291 11.3864 106.53 9.77557 107.007 8.44034C107.49 7.09943 108.183 6.0767 109.087 5.37216C109.996 4.66193 111.087 4.30682 112.359 4.30682C113.632 4.30682 114.72 4.66193 115.624 5.37216C116.533 6.0767 117.226 7.09943 117.703 8.44034C118.186 9.77557 118.428 11.3864 118.428 13.2727C118.428 15.1705 118.189 16.7898 117.712 18.1307C117.234 19.4659 116.544 20.4858 115.641 21.1903C114.737 21.8892 113.643 22.2386 112.359 22.2386ZM112.359 20.3636C113.632 20.3636 114.621 19.75 115.325 18.5227C116.03 17.2955 116.382 15.5455 116.382 13.2727C116.382 11.7614 116.22 10.4744 115.896 9.41193C115.578 8.34943 115.118 7.53977 114.516 6.98295C113.919 6.42614 113.2 6.14773 112.359 6.14773C111.098 6.14773 110.112 6.76989 109.402 8.0142C108.692 9.25284 108.337 11.0057 108.337 13.2727C108.337 14.7841 108.496 16.0682 108.814 17.125C109.132 18.1818 109.589 18.9858 110.186 19.5369C110.788 20.0881 111.513 20.3636 112.359 20.3636ZM127.803 4.54545V22H125.689V6.76136H125.587L121.325 9.59091V7.44318L125.689 4.54545H127.803ZM132.822 22V20.4659L138.584 14.1591C139.26 13.4205 139.817 12.7784 140.254 12.233C140.692 11.6818 141.016 11.1648 141.226 10.6818C141.442 10.1932 141.55 9.68182 141.55 9.14773C141.55 8.53409 141.402 8.00284 141.107 7.55398C140.817 7.10511 140.419 6.75852 139.913 6.5142C139.408 6.26989 138.839 6.14773 138.209 6.14773C137.538 6.14773 136.953 6.28693 136.453 6.56534C135.959 6.83807 135.575 7.22159 135.303 7.71591C135.036 8.21023 134.902 8.78977 134.902 9.45454H132.891C132.891 8.43182 133.126 7.53409 133.598 6.76136C134.07 5.98864 134.712 5.38636 135.524 4.95454C136.342 4.52273 137.26 4.30682 138.277 4.30682C139.3 4.30682 140.206 4.52273 140.996 4.95454C141.786 5.38636 142.405 5.96875 142.854 6.7017C143.303 7.43466 143.527 8.25 143.527 9.14773C143.527 9.78977 143.411 10.4176 143.178 11.0312C142.95 11.6392 142.553 12.3182 141.984 13.0682C141.422 13.8125 140.641 14.7216 139.641 15.7955L135.72 19.9886V20.125H143.834V22H132.822ZM154.888 12.3352V14.2102H147.251V12.3352H154.888ZM164.529 4.54545V22H162.415V6.76136H162.313L158.052 9.59091V7.44318L162.415 4.54545H164.529ZM169.549 22V20.4659L175.31 14.1591C175.987 13.4205 176.543 12.7784 176.981 12.233C177.418 11.6818 177.742 11.1648 177.952 10.6818C178.168 10.1932 178.276 9.68182 178.276 9.14773C178.276 8.53409 178.129 8.00284 177.833 7.55398C177.543 7.10511 177.146 6.75852 176.64 6.5142C176.134 6.26989 175.566 6.14773 174.935 6.14773C174.265 6.14773 173.68 6.28693 173.18 6.56534C172.685 6.83807 172.302 7.22159 172.029 7.71591C171.762 8.21023 171.629 8.78977 171.629 9.45454H169.617C169.617 8.43182 169.853 7.53409 170.325 6.76136C170.796 5.98864 171.438 5.38636 172.251 4.95454C173.069 4.52273 173.987 4.30682 175.004 4.30682C176.026 4.30682 176.933 4.52273 177.722 4.95454C178.512 5.38636 179.131 5.96875 179.58 6.7017C180.029 7.43466 180.254 8.25 180.254 9.14773C180.254 9.78977 180.137 10.4176 179.904 11.0312C179.677 11.6392 179.279 12.3182 178.711 13.0682C178.148 13.8125 177.367 14.7216 176.367 15.7955L172.447 19.9886V20.125H180.56V22H169.549ZM191.614 12.3352V14.2102H183.978V12.3352H191.614ZM200.812 22.2386C199.528 22.2386 198.435 21.8892 197.531 21.1903C196.628 20.4858 195.938 19.4659 195.46 18.1307C194.983 16.7898 194.744 15.1705 194.744 13.2727C194.744 11.3864 194.983 9.77557 195.46 8.44034C195.943 7.09943 196.636 6.0767 197.54 5.37216C198.449 4.66193 199.54 4.30682 200.812 4.30682C202.085 4.30682 203.173 4.66193 204.077 5.37216C204.986 6.0767 205.679 7.09943 206.156 8.44034C206.639 9.77557 206.881 11.3864 206.881 13.2727C206.881 15.1705 206.642 16.7898 206.165 18.1307C205.688 19.4659 204.997 20.4858 204.094 21.1903C203.19 21.8892 202.097 22.2386 200.812 22.2386ZM200.812 20.3636C202.085 20.3636 203.074 19.75 203.778 18.5227C204.483 17.2955 204.835 15.5455 204.835 13.2727C204.835 11.7614 204.673 10.4744 204.349 9.41193C204.031 8.34943 203.571 7.53977 202.969 6.98295C202.372 6.42614 201.653 6.14773 200.812 6.14773C199.551 6.14773 198.565 6.76989 197.855 8.0142C197.145 9.25284 196.79 11.0057 196.79 13.2727C196.79 14.7841 196.949 16.0682 197.267 17.125C197.585 18.1818 198.043 18.9858 198.639 19.5369C199.241 20.0881 199.966 20.3636 200.812 20.3636ZM215.915 22.2386C215.199 22.2273 214.483 22.0909 213.767 21.8295C213.051 21.5682 212.398 21.1278 211.807 20.5085C211.216 19.8835 210.741 19.0398 210.384 17.9773C210.026 16.9091 209.847 15.5682 209.847 13.9545C209.847 12.4091 209.991 11.0398 210.281 9.84659C210.571 8.64773 210.991 7.6392 211.543 6.82102C212.094 5.99716 212.759 5.37216 213.537 4.94602C214.321 4.51989 215.205 4.30682 216.188 4.30682C217.165 4.30682 218.034 4.50284 218.795 4.89489C219.563 5.28125 220.188 5.82102 220.67 6.5142C221.153 7.20739 221.466 8.00568 221.608 8.90909H219.528C219.335 8.125 218.96 7.47443 218.403 6.95739C217.847 6.44034 217.108 6.18182 216.188 6.18182C214.835 6.18182 213.77 6.76989 212.991 7.94602C212.219 9.12216 211.83 10.7727 211.824 12.8977H211.96C212.278 12.4148 212.656 12.0028 213.094 11.6619C213.537 11.3153 214.026 11.0483 214.56 10.8608C215.094 10.6733 215.659 10.5795 216.256 10.5795C217.256 10.5795 218.17 10.8295 219 11.3295C219.83 11.8239 220.494 12.5085 220.994 13.3835C221.494 14.2528 221.744 15.25 221.744 16.375C221.744 17.4545 221.503 18.4432 221.02 19.3409C220.537 20.233 219.858 20.9432 218.983 21.4716C218.114 21.9943 217.091 22.25 215.915 22.2386ZM215.915 20.3636C216.631 20.3636 217.273 20.1847 217.841 19.8267C218.415 19.4687 218.866 18.9886 219.196 18.3864C219.531 17.7841 219.699 17.1136 219.699 16.375C219.699 15.6534 219.537 14.9972 219.213 14.4062C218.895 13.8097 218.455 13.3352 217.892 12.983C217.335 12.6307 216.699 12.4545 215.983 12.4545C215.443 12.4545 214.94 12.5625 214.474 12.7784C214.009 12.9886 213.599 13.2784 213.247 13.6477C212.901 14.017 212.628 14.4403 212.429 14.9176C212.23 15.3892 212.131 15.8864 212.131 16.4091C212.131 17.1023 212.293 17.75 212.616 18.3523C212.946 18.9545 213.395 19.4403 213.963 19.8097C214.537 20.179 215.188 20.3636 215.915 20.3636Z" fill="#FF2020"/>
</svg>
