<svg width="187" height="39" viewBox="0 0 187 39" fill="none" xmlns="http://www.w3.org/2000/svg">
<path d="M30.0954 29.0765C27.2114 31.6225 23.4494 33.1585 19.3434 33.1585C10.7314 33.1585 4.27841 26.4885 4.27841 18.8645C4.27841 11.6945 9.99441 5.84149 17.0824 5.84149C23.7704 5.84149 28.5964 11.0275 28.5964 16.6415C28.5964 21.9055 24.4444 26.1745 19.3434 26.1745C14.6764 26.1745 11.3824 22.6385 11.3824 18.8645C11.3824 15.4765 14.0024 12.8245 17.0844 12.8245C19.8124 12.8245 21.4944 14.8135 21.4944 16.6415C21.4944 18.2295 20.3784 19.1875 19.3444 19.1875C18.9774 19.1875 18.8374 19.1105 18.6904 19.0195C19.0244 18.5895 19.1904 18.0325 19.1054 17.4505C19.0668 17.1842 18.9762 16.9282 18.8385 16.697C18.7009 16.4658 18.5191 16.264 18.3035 16.1031C18.0878 15.9423 17.8425 15.8255 17.5817 15.7595C17.3209 15.6935 17.0496 15.6796 16.7834 15.7185C15.8254 15.8615 15.2174 16.5125 14.9164 16.9955C14.5705 17.5572 14.3896 18.2049 14.3944 18.8645C14.3944 21.5585 16.9044 23.2995 19.3444 23.2995C22.9054 23.3025 25.5844 20.1915 25.5844 16.6415C25.5844 12.2975 21.8194 8.71349 17.0844 8.71349C11.5844 8.71349 7.29241 13.3695 7.29241 18.8635C7.29241 25.0915 12.6014 30.2835 19.3454 30.2835C26.8014 30.2835 32.6884 24.0755 32.6884 16.6395C32.6884 8.64549 25.9204 1.72949 17.0844 1.72949C7.68441 1.72949 0.191406 9.47949 0.191406 18.8645C0.191406 28.8845 8.60341 37.2705 19.3454 37.2705C24.4844 37.2705 29.1984 35.3405 32.7954 32.1665L30.0954 29.0765Z" fill="black"/>
<path d="M55.2553 30.344H59.0853V8.31396H53.5053C47.8953 8.31396 44.9553 11.194 44.9553 15.444C44.9553 18.834 46.5653 20.834 49.4553 22.894L44.4453 30.344H48.5953L54.1753 22.004L52.2453 20.704C49.8953 19.124 48.7553 17.884 48.7553 15.224C48.7553 12.874 50.4053 11.294 53.5453 11.294H55.2553V30.344ZM129.205 30.654C130.955 30.654 132.185 30.344 133.105 29.674V26.604C132.155 27.264 131.015 27.674 129.435 27.674C126.735 27.674 125.625 25.584 125.625 22.294C125.625 18.834 126.995 17.064 129.465 17.064C130.925 17.064 132.345 17.564 133.105 18.044V14.844C132.315 14.394 130.925 14.084 129.055 14.084C124.235 14.084 121.725 17.534 121.725 22.384C121.725 27.714 124.165 30.654 129.205 30.654ZM105.625 29.264V26.184C104.455 26.984 102.485 27.674 100.645 27.674C97.8853 27.674 96.8453 26.384 96.6853 23.714H105.785V21.724C105.785 16.174 103.345 14.084 99.5653 14.084C94.9753 14.084 92.7853 17.594 92.7853 22.414C92.7853 27.964 95.5153 30.654 100.335 30.654C102.735 30.654 104.515 30.024 105.625 29.264ZM117.675 30.344H121.945L115.895 21.874L121.225 14.394H117.415L112.095 21.874V14.394H108.315V30.344H112.095V22.634L117.675 30.344ZM91.8653 27.364H90.1853V14.394H79.1853V15.764C79.1853 19.654 78.9353 24.694 77.6053 27.364H76.4253V33.984H79.9153V30.344H88.3753V33.984H91.8653V27.364ZM71.0753 14.394V20.704H66.0353V14.394H62.2553V30.344H66.0353V23.684H71.0753V30.344H74.8453V14.394H71.0753ZM99.5053 17.064C101.375 17.064 101.945 18.614 101.945 20.614V20.924H96.6853C96.7853 18.394 97.6953 17.064 99.5053 17.064ZM86.4153 27.364H81.0853C82.1353 24.954 82.4253 20.614 82.4253 17.854V17.374H86.4153V27.364ZM141.985 8.31396V30.344H154.505V27.364H145.815V20.764H153.045V17.784H145.815V11.294H154.345V8.31396H141.985ZM171.525 27.364H169.845V14.394H158.845V15.764C158.845 19.654 158.595 24.694 157.265 27.364H156.095V33.984H159.575V30.344H168.045V33.984H171.525V27.364ZM166.075 27.364H160.755C161.795 24.954 162.085 20.614 162.085 17.854V17.374H166.075V27.364ZM185.345 19.464C185.345 15.604 183.385 14.144 179.395 14.144C176.885 14.144 174.925 14.934 173.775 15.604V18.744C174.795 17.974 177.015 17.154 178.945 17.154C180.755 17.154 181.575 17.784 181.575 19.504V20.384H180.975C175.205 20.384 172.635 22.294 172.635 25.524C172.635 28.754 174.605 30.564 177.515 30.564C179.735 30.564 180.695 29.834 181.415 29.074H181.575C181.605 29.484 181.735 30.024 181.865 30.344H185.545C185.415 29.044 185.345 27.744 185.345 26.444V19.464ZM181.575 26.534C181.105 27.234 180.215 27.804 178.885 27.804C177.295 27.804 176.505 26.914 176.505 25.554C176.505 23.744 177.805 23.084 181.035 23.084H181.575V26.534Z" fill="black"/>
</svg>
