<svg width="123" height="123" viewBox="0 0 123 123" fill="none" xmlns="http://www.w3.org/2000/svg">
<path d="M61.5 123C95.4655 123 123 95.4655 123 61.5C123 27.5345 95.4655 0 61.5 0C27.5345 0 0 27.5345 0 61.5C0 95.4655 27.5345 123 61.5 123Z" fill="white"/>
<path fill-rule="evenodd" clip-rule="evenodd" d="M61.5273 5.9751C88.2769 5.9751 110.601 24.9159 115.824 50.1173C111.749 48.4761 108.711 52.4451 108.711 52.4451C105.187 42.5949 90.1614 45.818 89.4261 55.802C89.2222 55.8559 80.1506 52.1753 80.376 62.9245C80.3797 63.1022 113.347 63.3894 116.937 63.3255L116.946 63.2847C116.383 80.3693 108.091 95.4963 95.4568 105.286L71.1367 51.6142C77.2766 50.7728 83.4476 47.5588 79.8588 40.5629C79.3257 40.2717 43.8914 40.4924 43.8914 40.4924C43.7168 37.8797 44.9484 37.9661 51.7909 38.0152C60.9166 38.0474 69.698 38.1473 78.6475 37.9176C84.1319 37.1803 82.4462 29.6707 78.6523 29.5641C77.0014 29.1428 47.5806 29.4371 47.4157 29.4289C51.6146 19.0861 64.8117 15.8022 73.5669 24.7094C74.8134 25.9373 76.051 28.0971 77.464 27.0911C81.9165 24.5665 59.2106 3.93284 44.9176 26.6989C43.5357 28.9 44.0531 32.7504 47.8863 32.6423C48.5244 32.6243 71.3384 32.6061 73.5769 32.6166C77.743 32.6931 79.1803 32.4418 79.0573 34.8292C78.8377 35.1786 48.4428 35.1666 45.3615 35.1398C39.0196 35.4227 38.7977 43.2792 44.3144 43.8553C46.621 44.0387 51.2966 43.9586 51.994 43.9603C54.2162 43.966 54.4843 42.2694 56.9447 42.3065C59.3113 42.3424 59.6467 44.0541 61.9437 44.069C63.8542 44.0812 64.4101 42.3524 66.7148 42.3308C69.5471 42.3042 69.1438 44.1294 71.9582 44.0379C74.1254 43.9671 74.1901 42.2529 75.897 42.1901C78.8973 42.501 78.5091 47.9706 71.2166 48.2351L52.8408 48.2564C49.0589 47.8745 48.3806 44.4343 46.3198 46.1814C44.4627 48.8477 49.452 51.3221 52.5011 51.6062L52.5861 51.6142L27.5008 105.214C14.4629 95.0673 6.07446 79.2281 6.07446 61.4279C6.07446 54.2997 7.42019 47.4857 9.8709 41.2263C18.087 41.2931 34.9026 41.3781 34.9225 41.2574C36.4263 31.9991 27.3385 33.4606 27.1779 33.4144C25.4155 29.0358 21.6273 27.2406 17.7119 27.4399C27.8571 14.3806 43.7097 5.9751 61.5273 5.9751ZM77.5011 52.9228L78.9863 51.4374C79.1977 51.2263 79.5434 51.2263 79.7547 51.4374L81.2402 52.9228C81.4513 53.1342 81.4513 53.4799 81.2402 53.6913L79.7547 55.1765C79.5434 55.3878 79.1977 55.3878 78.9863 55.1765L77.5011 53.6913C77.2898 53.4799 77.2898 53.1342 77.5011 52.9228ZM33.0714 47.8888L34.5569 46.4033C34.7682 46.1919 35.1139 46.1919 35.325 46.4033L36.8105 47.8888C37.0219 48.1001 37.0219 48.4458 36.8105 48.6569L35.325 50.1424C35.1139 50.3538 34.7682 50.3538 34.5569 50.1424L33.0714 48.6569C32.86 48.4458 32.86 48.1001 33.0714 47.8888ZM38.9412 18.4868L41.9084 15.5195C42.3306 15.0974 43.0211 15.0974 43.443 15.5195L46.4103 18.4868C46.8321 18.9089 46.8321 19.5995 46.4103 20.0213L43.443 22.9886C43.0211 23.4108 42.3306 23.4108 41.9084 22.9886L38.9412 20.0213C38.519 19.5995 38.519 18.9089 38.9412 18.4868ZM83.8709 40.4417L85.7888 38.5238C86.0615 38.2511 86.5079 38.2511 86.7806 38.5238L88.6985 40.4417C88.9714 40.7143 88.9714 41.1607 88.6985 41.4337L86.7806 43.3516C86.5079 43.6243 86.0615 43.6243 85.7888 43.3516L83.8709 41.4337C83.5982 41.161 83.5982 40.7146 83.8709 40.4417ZM40.5904 53.0446L42.6261 51.0089C42.9156 50.7194 43.3894 50.7194 43.6789 51.0089L45.7146 53.0446C46.0041 53.3344 46.0041 53.8082 45.7146 54.0977L43.6789 56.1334C43.3894 56.4229 42.9156 56.4229 42.6261 56.1334L40.5904 54.0977C40.3006 53.8082 40.3006 53.3344 40.5904 53.0446ZM24.7535 67.4691C27.2404 59.7653 40.4078 63.1113 40.1791 71.7715C38.0313 71.8098 17.852 71.7764 17.85 71.67C17.7151 65.2397 24.6314 67.5013 24.7535 67.4691Z" fill="#091D2D"/>
<path d="M53.4163 74.2356H51.8013V80.8524H46.8663V74.2356H45.8973V71.4694H46.8663V69.2543H51.8013V71.4694H53.4163V74.2356ZM64.8809 80.8524H60.2613V75.3611C60.2613 74.5305 59.9382 74.1152 59.2921 74.1152C59.0411 74.1152 58.8103 74.2278 58.5998 74.4535V80.8524H53.8467V67.9316H58.5998V72.4412C59.328 71.7001 60.2354 71.331 61.3275 71.331C62.4479 71.331 63.3219 71.6131 63.9451 72.1796C64.5678 72.7461 64.8806 73.5561 64.8806 74.6126V80.8526L64.8809 80.8524ZM76.6251 76.4199H70.152C70.152 76.917 70.2673 77.3018 70.498 77.5788C70.7031 77.8221 70.9672 77.9456 71.2929 77.9456C71.8286 77.9456 72.1826 77.7148 72.3517 77.2559L76.4611 77.6378C76.2508 78.6991 75.6664 79.5349 74.71 80.145C73.7793 80.7397 72.641 81.0369 71.2927 81.0369C69.852 81.0369 68.6163 80.5882 67.5906 79.6937C66.509 78.7479 65.968 77.5477 65.968 76.097C65.968 74.6508 66.5062 73.4743 67.5829 72.5692C68.5929 71.713 69.8311 71.2848 71.2927 71.2848C72.7539 71.2848 73.987 71.7258 74.9893 72.6074C76.0789 73.561 76.6248 74.8328 76.6248 76.4196L76.6251 76.4199ZM72.4285 75.0382C72.4285 74.3536 72.0488 74.0099 71.2927 74.0099C70.5311 74.0099 70.1517 74.3536 70.1517 75.0382H72.4282H72.4285ZM45.0482 87.3149H43.4332V93.9317H38.4981V87.3149H37.5292V84.5487H38.4981V82.3336H43.4332V84.5487H45.0482V87.3149ZM56.4053 93.9317H51.6961V93.0523C51.4268 93.3036 51.0703 93.5343 50.6293 93.7497C50.0831 94.0135 49.5936 94.147 49.1578 94.147C47.9145 94.147 46.9019 93.6958 46.1147 92.7959C45.3431 91.9088 44.9583 90.7807 44.9583 89.409C44.9583 87.7173 45.3406 86.4172 46.107 85.5099C46.8095 84.6845 47.7476 84.2717 48.9242 84.2717C49.4704 84.2717 49.983 84.3487 50.465 84.505C51.0443 84.6896 51.4545 84.9563 51.6958 85.3023V84.5487H56.405V93.9317H56.4053ZM51.6961 90.4553V87.9763C51.4548 87.8046 51.1368 87.7199 50.7423 87.7199C50.4371 87.7199 50.1807 87.8659 49.9759 88.1557C49.7708 88.4452 49.6681 88.8172 49.6681 89.2684C49.6681 89.668 49.7708 90.0117 49.981 90.299C50.1886 90.5888 50.4374 90.7322 50.7269 90.7322C51.1037 90.7322 51.4268 90.6398 51.6961 90.4553V90.4553ZM66.7983 90.9476C66.7983 91.9139 66.3833 92.6881 65.5524 93.2728C64.7192 93.8549 63.604 94.147 62.2018 94.147C60.2174 94.147 58.6152 93.6932 57.387 92.7885L58.1971 90.5965C59.1252 91.4039 59.9764 91.8067 60.7533 91.8067C61.4636 91.8067 61.8173 91.6013 61.8173 91.1914C61.8173 90.9658 61.661 90.7579 61.3455 90.5657C61.1147 90.4273 60.6914 90.2402 60.0765 90.012C59.2254 89.6943 58.605 89.3198 58.2128 88.8816C57.8232 88.443 57.6283 87.8893 57.6283 87.2253C57.6283 86.2974 58.026 85.5744 58.8232 85.0541C59.6178 84.5336 60.7405 84.2723 62.1866 84.2723C63.6427 84.2723 65.0834 84.5647 66.5065 85.1517L65.5527 87.3973C65.0963 87.0564 64.6938 86.8257 64.3453 86.7028C63.999 86.5795 63.5734 86.5179 63.0737 86.5179C62.5634 86.5179 62.3073 86.7281 62.3073 87.1489C62.3073 87.4692 62.5763 87.7333 63.1173 87.9381C63.5686 88.0793 64.0224 88.2151 64.4785 88.3511C66.0244 88.9073 66.7985 89.7713 66.7985 90.9481L66.7983 90.9476ZM74.3358 87.3149H72.7208V93.9317H67.7857V87.3149H66.8168V84.5487H67.7857V82.3336H72.7208V84.5487H74.3358V87.3149ZM85.6082 84.5487L80.3936 96.7004H75.1513L77.2255 91.991L73.9054 84.5487H79.0122L79.7632 86.8559L80.6426 84.5487H85.6085H85.6082ZM42.9925 104.027C42.9925 104.993 42.5772 105.767 41.7466 106.352C40.9132 106.934 39.7982 107.226 38.396 107.226C36.4114 107.226 34.8095 106.773 33.5813 105.868L34.3914 103.676C35.3195 104.483 36.1706 104.886 36.9473 104.886C37.6575 104.886 38.0115 104.681 38.0115 104.271C38.0115 104.045 37.8552 103.837 37.5397 103.645C37.309 103.507 36.8857 103.32 36.2708 103.091C35.4196 102.774 34.7992 102.399 34.407 101.961C34.0174 101.522 33.8226 100.969 33.8226 100.305C33.8226 99.3767 34.2202 98.6537 35.0174 98.1334C35.8124 97.6129 36.9351 97.3516 38.3812 97.3516C39.837 97.3516 41.278 97.644 42.701 98.231L41.7472 100.477C41.2908 100.136 40.8884 99.905 40.5395 99.7821C40.1935 99.6591 39.768 99.5972 39.2683 99.5972C38.758 99.5972 38.5018 99.8074 38.5018 100.228C38.5018 100.548 38.7708 100.813 39.3119 101.017C39.7631 101.159 40.2169 101.294 40.673 101.43C42.219 101.987 42.9931 102.851 42.9931 104.027L42.9925 104.027ZM55.3981 102.153C55.3981 103.845 55.0136 105.142 54.2498 106.049C53.5472 106.875 52.6088 107.288 51.4323 107.288C50.886 107.288 50.3735 107.211 49.8917 107.057C49.3124 106.87 48.902 106.606 48.6609 106.26C48.6609 106.339 48.6689 106.462 48.684 106.624C48.6994 106.785 48.7046 106.916 48.7046 107.011V110.395H43.9515V97.6277H48.6609V98.5019C48.9251 98.2507 49.2813 98.0199 49.7274 97.8097C50.2736 97.5458 50.7631 97.4124 51.1989 97.4124C52.4425 97.4124 53.4548 97.8636 54.2424 98.7635C55.0113 99.6506 55.3984 100.779 55.3984 102.153L55.3981 102.153ZM50.6887 102.286C50.6887 101.886 50.5837 101.543 50.3758 101.258C50.1681 100.971 49.9194 100.83 49.6299 100.83C49.2528 100.83 48.9299 100.922 48.6607 101.107V103.579C48.9068 103.753 49.2248 103.842 49.6145 103.842C49.9194 103.842 50.1758 103.694 50.3809 103.401C50.586 103.109 50.6884 102.737 50.6884 102.286H50.6887ZM67.7216 107.011H63.0121V106.132C62.7428 106.383 62.3866 106.614 61.9456 106.829C61.3994 107.093 60.9099 107.226 60.4741 107.226C59.2305 107.226 58.2182 106.775 57.4307 105.875C56.6591 104.988 56.2746 103.86 56.2746 102.488C56.2746 100.797 56.6566 99.4965 57.423 98.5892C58.1255 97.7638 59.0639 97.351 60.2405 97.351C60.7867 97.351 61.2993 97.428 61.781 97.5843C62.3603 97.7689 62.7708 98.0356 63.0118 98.3816V97.628H67.7213V107.011H67.7216ZM63.0121 103.535V101.056C62.7711 100.884 62.453 100.799 62.0583 100.799C61.7534 100.799 61.4969 100.945 61.2919 101.235C61.0868 101.525 60.9844 101.896 60.9844 102.348C60.9844 102.748 61.0868 103.091 61.2973 103.378C61.5049 103.668 61.7537 103.812 62.0432 103.812C62.4202 103.812 62.7431 103.719 63.0124 103.535H63.0121ZM77.4277 106.857C76.6507 107.083 75.8715 107.195 75.0919 107.195C73.1641 107.195 71.6746 106.824 70.6238 106.078C69.4469 105.249 68.8574 103.991 68.8574 102.301C68.8574 100.779 69.401 99.571 70.4877 98.6739C71.4977 97.8431 72.7744 97.4278 74.3178 97.4278C74.7845 97.4278 75.3304 97.4714 75.9636 97.5558C76.6379 97.6457 77.1277 97.7506 77.4277 97.871V101.183C76.8353 100.958 76.256 100.845 75.6844 100.845C74.4972 100.845 73.9051 101.309 73.9051 102.242C73.9051 102.673 74.046 103.027 74.3332 103.309C74.6484 103.624 75.0791 103.78 75.6253 103.78C76.2611 103.78 76.8607 103.663 77.4277 103.429V106.857V106.857ZM89.1716 102.578H82.6985C82.6985 103.075 82.8137 103.46 83.0445 103.737C83.2496 103.98 83.5137 104.104 83.8394 104.104C84.3751 104.104 84.7291 103.873 84.8979 103.414L89.0073 103.796C88.7973 104.857 88.2129 105.693 87.2565 106.303C86.3258 106.898 85.1875 107.195 83.8392 107.195C82.3982 107.195 81.1625 106.747 80.1371 105.852C79.0552 104.906 78.5144 103.706 78.5144 102.255C78.5144 100.809 79.0524 99.6326 80.1294 98.7276C81.1394 97.8713 82.3776 97.4432 83.8392 97.4432C85.3004 97.4432 86.5335 97.8841 87.5358 98.7658C88.6251 99.7196 89.1713 100.991 89.1713 102.578L89.1716 102.578ZM84.9747 101.197C84.9747 100.512 84.5953 100.169 83.8392 100.169C83.0776 100.169 82.6982 100.512 82.6982 101.197H84.9744H84.9747Z" fill="#FF0000"/>
<path d="M98.2912 110.213C88.0208 118.052 75.4449 122.539 61.5276 122.539C47.5966 122.539 34.7557 117.873 24.4806 110.02C24.484 110.013 23.5789 109.393 23.559 108.422C23.5384 107.429 24.3642 106.624 25.3574 106.624C25.8711 106.624 26.2131 106.761 26.583 107.106C36.7606 114.839 47.644 118.949 61.5276 118.949C75.4951 118.949 86.0342 115.001 96.2831 107.225C96.6217 106.943 96.9583 106.808 97.4352 106.808C98.4287 106.808 99.2547 107.614 99.2339 108.607C99.2139 109.557 98.2909 110.213 98.2909 110.213H98.2912Z" fill="#FF0000"/>
</svg>
