<svg width="20" height="25" viewBox="0 0 20 25" fill="none" xmlns="http://www.w3.org/2000/svg">
<g filter="url(#filter0_d_60_61)">
<path d="M15.9335 13.7423L15.3252 15.6101C15.2695 15.7837 15.1726 15.943 15.0405 16.0777C14.9085 16.2124 14.7443 16.3195 14.5584 16.3922C14.3726 16.4649 14.1691 16.5016 13.9612 16.4999C13.7533 16.4983 13.5454 16.4583 13.3508 16.3825C11.2042 15.507 9.29029 14.2112 7.7629 12.5994C6.33546 11.1195 5.27666 9.39983 4.6617 7.56252C3.97448 5.57173 3.81988 3.49435 4.21041 1.49868C4.2485 1.32109 4.32866 1.15469 4.4458 1.01008C4.56293 0.865468 4.71446 0.745815 4.89076 0.658736C5.06705 0.571657 5.26423 0.519061 5.46976 0.504296C5.67528 0.489531 5.88464 0.512921 6.08451 0.572977L8.2434 1.22361C8.59361 1.32589 8.89734 1.53493 9.09798 1.81176C9.29862 2.08859 9.38247 2.41433 9.33391 2.72826C9.23036 3.35347 9.20821 3.9913 9.26788 4.6296C9.29213 4.88163 9.23421 5.13014 9.10099 5.34567C8.96776 5.56121 8.76482 5.73475 8.51621 5.84572L7.34477 6.36099C7.86157 8.22846 8.93298 9.96864 10.446 11.3979L11.6174 10.8826C11.8676 10.7742 12.1522 10.7333 12.4375 10.7647C12.7228 10.7962 12.9968 10.8987 13.2271 11.0601C13.8113 11.4676 14.4421 11.8183 15.1073 12.1053C15.443 12.2534 15.7126 12.5019 15.8649 12.8037C16.0173 13.1055 16.0417 13.4396 15.9335 13.7423Z" fill="white"/>
</g>
<defs>
<filter id="filter0_d_60_61" x="0" y="0.5" width="20" height="24" filterUnits="userSpaceOnUse" color-interpolation-filters="sRGB">
<feFlood flood-opacity="0" result="BackgroundImageFix"/>
<feColorMatrix in="SourceAlpha" type="matrix" values="0 0 0 0 0 0 0 0 0 0 0 0 0 0 0 0 0 0 127 0" result="hardAlpha"/>
<feOffset dy="4"/>
<feGaussianBlur stdDeviation="2"/>
<feComposite in2="hardAlpha" operator="out"/>
<feColorMatrix type="matrix" values="0 0 0 0 0 0 0 0 0 0 0 0 0 0 0 0 0 0 0.25 0"/>
<feBlend mode="normal" in2="BackgroundImageFix" result="effect1_dropShadow_60_61"/>
<feBlend mode="normal" in="SourceGraphic" in2="effect1_dropShadow_60_61" result="shape"/>
</filter>
</defs>
</svg>
